<?xml version="1.0" standalone="no"?>
<!DOCTYPE svg PUBLIC "-//W3C//DTD SVG 20010904//EN"
 "http://www.w3.org/TR/2001/REC-SVG-20010904/DTD/svg10.dtd">
<svg version="1.0" xmlns="http://www.w3.org/2000/svg"
 width="200.000000pt" height="200.000000pt" viewBox="0 0 200.000000 200.000000"
 preserveAspectRatio="xMidYMid meet">

<g transform="translate(0.000000,200.000000) scale(0.100000,-0.100000)"
fill="#000000" stroke="none">
<path d="M800 1960 c-8 -15 -7 -25 4 -43 15 -23 15 -23 -57 -41 -221 -56 -429
-206 -558 -403 -108 -165 -154 -339 -146 -548 7 -164 30 -258 67 -263 41 -6
50 20 32 86 -12 41 -17 100 -17 212 0 184 12 238 84 385 103 209 273 359 495
436 100 35 121 37 104 9 -15 -24 -1 -53 27 -58 18 -4 135 103 135 124 0 19
-117 124 -139 124 -11 0 -25 -9 -31 -20z"/>
<path d="M1107 1883 c-10 -10 -8 -51 3 -58 5 -3 44 -15 87 -25 380 -97 645
-438 646 -835 1 -133 -27 -280 -48 -252 -15 21 -48 22 -65 2 -10 -12 -6 -30
20 -95 18 -44 38 -80 45 -80 25 0 149 57 159 73 17 27 -5 52 -44 50 -30 -1
-31 1 -25 25 52 203 47 408 -13 582 -103 295 -353 528 -653 605 -61 16 -102
19 -112 8z"/>
<path d="M828 1554 l-3 -66 -55 -23 -55 -22 -45 43 -46 44 -104 -105 -104
-105 43 -44 43 -44 -24 -61 -23 -61 -62 0 -63 0 0 -150 0 -150 63 0 62 0 22
-57 23 -57 -40 -41 c-22 -22 -40 -45 -40 -51 0 -5 45 -54 100 -109 l100 -99
44 43 44 43 61 -23 61 -24 0 -62 0 -63 150 0 150 0 0 63 0 62 61 24 61 23 44
-43 44 -43 105 104 105 104 -46 47 -46 46 21 41 c12 23 21 48 21 56 0 12 16
16 68 18 l67 3 3 147 3 147 -66 3 -66 3 -24 60 -25 60 45 45 45 46 -105 104
-106 105 -42 -48 -42 -48 -60 25 -60 24 -3 66 -3 66 -149 0 -149 0 -3 -66z
m262 -246 c90 -27 177 -104 221 -196 28 -59 37 -182 19 -248 -20 -70 -82 -156
-143 -197 -150 -102 -343 -82 -467 49 -75 79 -94 129 -95 244 0 82 4 103 26
151 78 166 263 249 439 197z"/>
<path d="M215 488 c-18 -61 -32 -155 -24 -170 14 -25 59 -23 66 2 3 11 7 20 8
20 2 0 29 -25 62 -56 259 -250 641 -329 983 -205 100 37 197 94 285 168 86 73
119 117 104 144 -15 29 -45 23 -81 -17 -90 -99 -242 -193 -388 -239 -110 -35
-286 -45 -405 -22 -166 31 -329 115 -444 229 l-55 53 31 3 c41 4 58 24 44 51
-8 13 -32 24 -80 35 -84 19 -100 20 -106 4z"/>
</g>
</svg>
