<?xml version="1.0" standalone="no"?>
<!DOCTYPE svg PUBLIC "-//W3C//DTD SVG 20010904//EN"
 "http://www.w3.org/TR/2001/REC-SVG-20010904/DTD/svg10.dtd">
<svg version="1.0" xmlns="http://www.w3.org/2000/svg"
 width="928.000000pt" height="1280.000000pt" viewBox="0 0 928.000000 1280.000000"
 preserveAspectRatio="xMidYMid meet">

<g transform="translate(0.000000,1280.000000) scale(0.100000,-0.100000)"
fill="#000000" stroke="none">
<path d="M4445 12794 c-435 -42 -765 -139 -1115 -330 -680 -369 -1188 -1040
-1354 -1786 -54 -242 -60 -304 -61 -613 0 -308 7 -376 60 -615 105 -474 352
-929 697 -1286 393 -406 874 -671 1422 -784 336 -69 756 -69 1091 0 525 107
988 355 1371 735 222 220 372 423 510 690 207 400 304 800 304 1255 0 608
-185 1168 -545 1644 -447 593 -1076 963 -1820 1071 -104 15 -471 28 -560 19z"/>
<path d="M2065 7292 c-230 -164 -401 -309 -605 -512 -731 -728 -1232 -1724
-1395 -2777 -61 -394 -58 -297 -62 -2230 l-4 -1773 4641 0 4640 0 0 1678 c0
1845 -4 1958 -66 2337 -223 1355 -933 2521 -1998 3280 l-118 85 -42 -36 c-360
-308 -678 -504 -1071 -661 -450 -180 -855 -258 -1345 -258 -338 0 -589 31
-892 110 -572 147 -1044 398 -1523 809 l-41 34 -119 -86z"/>
</g>
</svg>
